<svg width="20" height="20" viewBox="0 0 20 20" fill="none" xmlns="http://www.w3.org/2000/svg">
<path d="M10 0C4.48609 0 0 4.48609 0 10C0 15.5139 4.48609 20 10 20C15.5139 20 20 15.5139 20 10C20 4.48609 15.5139 0 10 0ZM10.4167 19.1455V17.9166C10.4167 17.6863 10.2303 17.5 10 17.5C9.76969 17.5 9.58332 17.6863 9.58332 17.9166V19.1455C4.86191 18.9318 1.0682 15.1381 0.854414 10.4166H2.08332C2.31363 10.4167 2.5 10.2303 2.5 10C2.5 9.76969 2.31363 9.58332 2.08332 9.58332H0.854414C1.0682 4.86191 4.86187 1.0682 9.58332 0.854414V2.08332C9.58332 2.31363 9.76969 2.5 10 2.5C10.2303 2.5 10.4167 2.31363 10.4167 2.08332V0.854414C15.1381 1.0682 18.9318 4.86187 19.1456 9.58332H17.9167C17.6864 9.58332 17.5 9.76969 17.5 10C17.5 10.2303 17.6864 10.4167 17.9167 10.4167H19.1456C18.9318 15.1381 15.1381 18.9318 10.4167 19.1455Z" fill="#FF8900"/>
<path d="M10.7925 10.203C10.8098 10.1363 10.8336 10.0719 10.8336 9.99994C10.8336 9.82552 10.7673 9.67251 10.6753 9.53857L13.2946 3.92615C13.3918 3.71783 13.3019 3.46958 13.0932 3.37236C12.8852 3.27669 12.637 3.36583 12.5394 3.57376L9.92199 9.18247C9.50105 9.224 9.16699 9.56833 9.16699 9.99994C9.16699 10.4593 9.54094 10.8333 10.0003 10.8333C10.0723 10.8333 10.1367 10.8094 10.2034 10.7922L13.4557 14.0445C13.5371 14.1259 13.6437 14.1666 13.7503 14.1666C13.8569 14.1666 13.9635 14.1259 14.0449 14.0445C14.2077 13.8817 14.2077 13.6181 14.0449 13.4553L10.7925 10.203Z" fill="#FF8900"/>
</svg>
