<svg width="180" height="60" viewBox="0 0 180 60" fill="none" xmlns="http://www.w3.org/2000/svg">
<path d="M146.47 14.302C146.47 6.39882 139.237 0 130.313 0C127.888 0 125.594 0.466667 123.529 1.31765L141.394 24.7059C144.67 21.9415 146.497 18.1974 146.47 14.302Z" fill="#E14C9A"/>
<path d="M0 0V46.998C0 54.15 5.388 60 12 60V13.002L11.994 12.807C11.883 5.715 6.558 0 0 0ZM45.492 46.974V46.977H30.48V36.516H45.492C48.255 36.516 50.496 38.856 50.496 41.745C50.496 44.634 48.255 46.974 45.492 46.974ZM51.891 24.684L51.915 24.618C52.628 22.59 52.9912 20.4557 52.989 18.306C52.989 8.268 45.255 0.126 35.676 0.015C35.622 0.015 35.256 0 35.121 0H18.006C18.006 7.128 23.436 12.984 30.399 13.029H35.481C38.247 13.029 40.488 15.369 40.488 18.258C40.488 21.147 38.247 23.49 35.481 23.49V23.496H24.201C20.832 23.514 18.102 26.319 18.009 29.823L18.006 29.793V29.877L18 30.006L18.006 30.132V46.965C18.006 54.117 23.517 59.919 30.342 59.997H30.351L30.48 60L30.609 59.997H46.074C55.473 59.676 63 51.609 63 41.712C63 33.966 58.392 27.354 51.891 24.684ZM97.5 46.968C88.599 46.968 81.384 39.372 81.384 30.006C81.384 20.637 88.599 13.041 97.5 13.041C106.401 13.041 113.616 20.637 113.616 30.006C113.616 39.372 106.401 46.968 97.5 46.968ZM97.497 0C81.747 0 69 13.416 69 30C69 46.584 81.744 60 97.497 60C113.253 60 126 46.584 126 30C126 13.416 113.253 0 97.497 0ZM180 1.191C177.964 0.405035 175.801 0.00128099 173.619 0C167.355 0 161.835 3.246 158.598 8.169H158.595L145.23 28.866C145.23 28.866 126 58.719 126 58.806C127.989 59.574 130.14 59.997 132.39 59.997C138.657 59.997 144.174 56.751 147.411 51.828H147.414V51.822L153.12 43.098L158.832 52.176C162.084 56.907 167.484 60 173.592 60C175.848 60 178.008 59.58 179.997 58.806L161.559 30.171C164.949 24.861 180 1.278 180 1.191Z" fill="#3D3F40"/>
</svg>
