<svg width="176" height="70" viewBox="0 0 176 70" fill="none" xmlns="http://www.w3.org/2000/svg">
<g clip-path="url(#clip0_8669_36032)">
<path d="M72.542 63.3519C72.542 63.3519 83.4917 45.3631 85.447 36.9553C87.4023 28.5475 87.5979 24.0503 79.9722 23.2681C72.1509 22.486 63.3521 23.2681 63.3521 23.2681C63.3521 23.2681 75.6705 15.4469 91.8995 16.0335C108.324 16.4246 117.71 23.2681 117.71 23.2681C117.71 23.2681 114.19 24.6368 108.52 25.0279C102.849 25.6145 100.698 26.7877 101.089 33.2402C101.481 39.6927 103.827 44.1899 103.827 44.1899C103.827 44.1899 94.637 38.1285 88.9666 44.1899C83.2962 50.2514 82.123 52.9888 78.799 56.8994C75.6705 60.81 72.542 63.3519 72.542 63.3519Z" fill="#136BB5"/>
<path d="M91.3125 0C95.2232 0 98.3516 3.12849 98.3516 7.03911C98.3516 10.9497 95.2232 14.0782 91.3125 14.0782C87.4019 14.0782 84.2734 10.9497 84.2734 7.03911C84.2734 3.12849 87.5975 0 91.3125 0Z" fill="#F8A81B"/>
<path d="M4.30195 45.7542C4.10642 46.9274 4.30195 49.4693 4.88854 50.838C5.86619 53.1843 7.8215 54.3575 10.3634 54.3575C13.2964 54.3575 15.4472 53.3799 16.8159 52.4022L17.4025 55.9218C15.6427 57.095 12.7098 58.0726 9.38575 58.0726C2.93323 58.0726 0.195801 53.1844 0.195801 47.3184C0.195801 39.1061 5.67066 30.1117 13.4919 30.1117C18.1846 30.1117 20.7265 33.2402 20.7265 36.9553C20.3355 43.9944 13.2964 45.9497 4.30195 45.7542ZM12.7098 33.6313C8.79915 33.6313 5.86619 37.933 4.69301 42.2346C11.1455 42.2346 16.4248 41.257 16.4248 37.1508C16.4248 34.8045 14.8606 33.6313 12.7098 33.6313ZM41.0617 45.1676C40.2796 49.8603 39.8885 54.5531 40.0841 57.6816H36.1735C36.1735 56.1173 36.369 53.5754 36.76 50.6424H36.5645C33.8271 56.1173 30.5031 58.2681 27.179 58.2681C22.8774 58.2681 20.1399 54.5531 20.1399 49.2737C20.1399 39.8883 26.3969 30.1117 36.9556 30.1117C39.3019 30.1117 41.8438 30.5028 43.4081 31.0894L41.0617 45.1676ZM35.9779 33.6313C29.7209 33.6313 24.6371 40.8659 24.4416 48.2961C24.4416 51.229 25.4193 54.162 28.5478 54.162C32.0673 54.162 36.1735 49.0782 37.3466 42.0391L38.7154 33.8268C38.3243 33.8268 37.3466 33.6313 35.9779 33.6313ZM58.855 34.8045C58.0729 34.2179 56.5086 33.6313 54.5533 33.6313C52.0114 33.6313 50.2517 35.3911 50.2517 37.7374C50.2517 39.6927 51.4248 40.8659 53.5757 42.2346C56.3131 43.9944 58.0729 46.3408 58.0729 49.2737C58.0729 54.9441 53.9667 58.0726 48.6874 58.0726C46.1455 58.0726 43.7992 57.095 42.626 56.3128L43.7992 52.9888C44.9723 53.7709 47.1232 54.7486 49.0785 54.7486C51.8159 54.7486 53.7712 52.7933 53.7712 50.4469C53.7712 48.2961 52.9891 47.1229 50.4472 45.5587C47.7098 43.7989 46.1455 41.4525 46.1455 38.7151C46.1455 34.0223 49.8606 30.3073 54.9444 30.3073C57.0952 30.3073 59.0505 30.8938 60.0282 31.676L58.855 34.8045ZM73.1288 51.0335C70.5869 56.8994 68.045 61.5922 64.7209 65.1117C61.9835 68.2402 59.0505 69.4134 57.6818 69.8045L56.7042 65.8938C57.6818 65.5028 59.4416 64.7207 61.2014 63.3519C62.7656 61.9832 64.5254 59.8324 65.8941 57.095C66.0897 56.7039 66.0897 56.3128 66.0897 55.9218L61.2014 30.6983H65.5031L67.8494 45.1676C68.436 48.2961 68.6316 50.2514 69.0226 52.2067H69.2182C69.8047 50.4469 70.5869 48.6871 71.7601 45.5587L78.017 30.5028H82.1232L73.1288 51.0335Z" fill="#252525"/>
<path d="M115.168 58.0726C112.626 58.0726 110.866 57.486 109.888 56.8994H109.693L107.737 68.4358H103.631L108.52 40.0838C109.106 36.7598 109.497 33.2402 109.888 30.5028H113.603L112.821 35.5866H113.017C115.168 32.067 118.492 29.9162 121.62 29.9162C126.9 29.9162 129.05 34.6089 129.05 39.6927C129.246 49.2737 123.184 58.0726 115.168 58.0726ZM120.251 33.8268C116.927 33.8268 112.821 37.933 111.648 45.5587L110.475 52.9888C111.453 53.9665 113.212 54.5531 115.168 54.5531C120.447 54.5531 124.944 47.1229 124.944 40.0838C124.944 37.1508 123.771 33.8268 120.251 33.8268ZM150.559 45.1676C149.777 49.8603 149.386 54.5531 149.581 57.6816H145.67C145.67 56.1173 145.866 53.5754 146.257 50.6425H146.062C143.324 56.1173 140.196 58.2682 136.676 58.2682C132.374 58.2682 129.637 54.5531 129.637 49.2737C129.637 39.8883 135.894 30.1117 146.453 30.1117C148.799 30.1117 151.341 30.5028 152.905 31.0894L150.559 45.1676ZM145.475 33.6313C139.218 33.6313 134.134 40.8659 134.134 48.2961C134.134 51.229 135.112 54.162 138.24 54.162C141.76 54.162 145.866 49.0782 147.039 42.0391L148.408 33.8268C147.821 33.8268 146.844 33.6313 145.475 33.6313ZM166.201 51.0335C163.659 56.8994 161.117 61.5922 157.793 65.1117C155.056 68.2402 152.123 69.4134 150.754 69.8045L149.777 65.8939C150.754 65.5028 152.514 64.7207 154.274 63.352C155.838 61.9832 157.598 59.8324 158.967 57.095C159.162 56.7039 159.162 56.3128 159.162 55.9218L154.274 30.6983H158.575L160.922 45.1676C161.508 48.2961 161.704 50.2514 162.095 52.2067H162.291C162.877 50.4469 163.659 48.6871 164.832 45.5587L170.894 30.5028H175.196L166.201 51.0335Z" fill="#252525"/>
</g>
<defs>
<clipPath id="clip0_8669_36032">
<rect width="175.196" height="70" fill="white"/>
</clipPath>
</defs>
</svg>
