<svg width="192" height="60" viewBox="0 0 192 60" fill="none" xmlns="http://www.w3.org/2000/svg">
<g clip-path="url(#clip0_8672_36110)">
<path d="M0.247853 13.7454H9.64047V45.3126H0.247853V13.7454ZM9.95539 4.97037C9.95539 7.68083 7.97692 9.87634 4.88256 9.87634C1.91826 9.87634 -0.0602142 7.68083 0.00139926 4.97037C-0.0602142 2.13118 1.91826 0 4.94417 0C7.97008 0 9.88693 2.13118 9.95539 4.97037Z" fill="#E84F35"/>
<path d="M112.529 40.0631C112.529 36.5659 114.822 34.0342 118.115 34.0342C121.408 34.0342 123.64 36.5015 123.64 40.0631C123.64 43.5029 121.401 46.0275 118.054 46.0275C114.822 46.0275 112.529 43.5029 112.529 40.0631Z" fill="#E84F35"/>
<path d="M26.4341 22.0339C27.2419 22.227 28.2346 22.2985 29.5969 22.2985C34.6287 22.2985 37.7299 19.6381 37.7299 15.1683C37.7299 11.1491 35.0599 8.75335 30.3431 8.75335C28.4194 8.75335 27.1186 8.94645 26.4341 9.13955V22.0339ZM17.062 2.19533C19.9783 1.67327 24.079 1.28708 29.8502 1.28708C35.6829 1.28708 39.8453 2.45279 42.6384 4.79137C45.3084 6.99404 47.1088 10.6271 47.1088 14.9109C47.1088 19.1876 45.7396 22.8206 43.2614 25.2879C40.0301 28.4632 35.2585 29.8935 29.6653 29.8935C28.4262 29.8935 27.3035 29.8291 26.4341 29.7004V45.3267H17.062V2.19533Z" fill="#7B9AA9"/>
<path d="M67.8378 30.337C62.8747 30.2725 59.0273 31.5026 59.0273 35.3288C59.0273 37.8532 60.6429 39.0905 62.7515 39.0905C65.1065 39.0905 67.037 37.4742 67.6533 35.4646C67.7767 34.9497 67.8378 34.3633 67.8378 33.7768V30.337ZM68.9536 45.3124L68.3924 42.1371H68.2079C66.2224 44.6688 63.1143 46.0276 59.5202 46.0276C53.3726 46.0276 49.71 41.3647 49.71 36.3014C49.71 28.0699 56.7887 24.115 67.5233 24.1794V23.7288C67.5233 22.0411 66.6536 19.6453 61.9985 19.6453C58.8973 19.6453 55.6043 20.7466 53.619 22.0482L51.8802 15.6976C53.9887 14.4603 58.1511 12.9085 63.6757 12.9085C73.7938 12.9085 77.0186 19.1375 77.0186 26.5895V37.6172C77.0186 40.6639 77.1414 43.5817 77.4498 45.3339H68.9536V45.3124Z" fill="#7B9AA9"/>
<path d="M90.8062 13.6096L95.3386 29.1715C95.8315 31.0523 96.4544 33.3838 96.8239 35.0715H97.009C97.4403 33.3838 97.9398 30.988 98.371 29.1715L102.095 13.6096H112.214L105.142 34.4851C100.794 47.0648 97.8781 52.121 94.4622 55.2963C91.1764 58.2785 87.6981 59.3155 85.3364 59.6445L83.3515 51.2842C84.5284 51.0912 86.0211 50.5047 87.4454 49.5965C88.8691 48.8169 90.4227 47.265 91.3542 45.6416C91.662 45.191 91.8471 44.669 91.8471 44.2185C91.8471 43.8966 91.7854 43.3746 91.4086 42.595L80.2979 13.6096H90.8062Z" fill="#7B9AA9"/>
<path d="M157.965 35.1359C157.965 39.2839 158.088 42.6594 158.211 45.3126H150.017L149.585 40.8429H149.4C148.223 42.7881 145.368 46.0278 139.898 46.0278C133.757 46.0278 129.226 42.0086 129.226 32.2181V13.6096H138.721V30.6661C138.721 35.2718 140.152 38.0537 143.438 38.0537C146.046 38.0537 147.532 36.1729 148.155 34.621C148.401 34.0346 148.462 33.2622 148.462 32.4826V13.6096H157.958V35.1359H157.965Z" fill="#7B9AA9"/>
<path d="M181.673 30.337C176.703 30.2725 172.856 31.5026 172.856 35.3288C172.856 37.8532 174.471 39.0905 176.579 39.0905C178.942 39.0905 180.865 37.4742 181.481 35.4646C181.605 34.9497 181.673 34.3633 181.673 33.7768V30.337ZM182.795 45.3124L182.234 42.1371H182.05C180.064 44.6688 176.963 46.0276 173.362 46.0276C167.214 46.0276 163.559 41.3647 163.559 36.3014C163.559 28.0699 170.63 24.115 181.372 24.1794V23.7288C181.372 22.0411 180.502 19.6453 175.847 19.6453C172.746 19.6453 169.453 20.7466 167.467 22.0482L165.729 15.6976C167.838 14.4603 172 12.9085 177.517 12.9085C187.636 12.9085 190.86 19.1375 190.86 26.5895V37.6172C190.86 40.6639 190.983 43.5817 191.292 45.3339H182.795V45.3124Z" fill="#7B9AA9"/>
</g>
<defs>
<clipPath id="clip0_8672_36110">
<rect width="191.724" height="60" fill="white"/>
</clipPath>
</defs>
</svg>
