<svg width="20" height="20" viewBox="0 0 20 20" fill="none" xmlns="http://www.w3.org/2000/svg">
<path d="M20 7.66676C20 7.65976 19.9963 7.65375 19.996 7.64711C19.9939 7.62402 19.9893 7.60121 19.9823 7.5791C19.9777 7.55937 19.9713 7.54007 19.9633 7.52144C19.9538 7.50378 19.9427 7.48703 19.93 7.47144C19.9168 7.45234 19.9016 7.43468 19.8846 7.41878C19.8793 7.41409 19.877 7.40777 19.8713 7.40343L16.6666 4.91374V2.33334C16.6666 1.78107 16.2189 1.33332 15.6666 1.33332H12.0542L10.6078 0.210297C10.2504 -0.0681458 9.74951 -0.0681458 9.39212 0.210297L7.94545 1.33332H4.33305C3.78077 1.33332 3.33303 1.78103 3.33303 2.33334V4.91374L0.128635 7.40343C0.122971 7.40777 0.120627 7.41409 0.115315 7.41878C0.0983611 7.43468 0.0831655 7.45234 0.0699622 7.47144C0.0573057 7.48703 0.0461336 7.50378 0.0366413 7.52144C0.0285552 7.54003 0.0221879 7.55933 0.0176566 7.5791C0.0107033 7.60078 0.00613292 7.62312 0.00398445 7.64578C0.00398445 7.65246 0 7.65844 0 7.66543V19.0003C0.00132815 19.1076 0.0201175 19.214 0.055665 19.3153C-0.0208597 19.4307 -0.0172659 19.5815 0.0646105 19.6932C0.146487 19.8048 0.289302 19.8536 0.422351 19.8153C0.590792 19.9356 0.79267 20.0003 0.999705 20.0003H19C19.2079 19.9999 19.4104 19.9342 19.579 19.8126C19.6075 19.8214 19.6369 19.8262 19.6667 19.827C19.7884 19.8277 19.9007 19.7613 19.9588 19.6543C20.017 19.5474 20.0115 19.4171 19.9447 19.3153C19.9801 19.214 19.9988 19.1076 20 19.0003V7.66676H20ZM9.79978 0.736322C9.91619 0.64382 10.081 0.64382 10.1974 0.736322L10.9664 1.33332H9.03309L9.79978 0.736322ZM1.08232 19.3336L9.79982 12.5622C9.91631 12.4702 10.0807 12.4702 10.1972 12.5622L18.9173 19.3336H1.08232ZM19.3333 18.813L10.6071 12.0359C10.25 11.7578 9.74963 11.7578 9.39247 12.0359L0.666301 18.813V8.17442L6.12874 12.4162C6.27429 12.529 6.48375 12.5025 6.5966 12.357C6.70945 12.2114 6.68297 12.002 6.53742 11.8891L0.987986 7.57976L3.33303 5.75774V8.33345C3.33303 8.51755 3.48229 8.66677 3.66635 8.66677C3.85046 8.66677 3.99968 8.51751 3.99968 8.33345V2.33334C3.99968 2.14924 4.1489 2.00002 4.33301 2.00002H15.6665C15.8506 2.00002 15.9999 2.14924 15.9999 2.33334V8.33345C15.9999 8.51755 16.1491 8.66677 16.3332 8.66677C16.5173 8.66677 16.6665 8.51751 16.6665 8.33345V5.75774L19.0115 7.57976L13.4522 11.8968C13.3068 12.0098 13.2804 12.2192 13.3934 12.3647C13.5063 12.5101 13.7157 12.5365 13.8612 12.4235L19.3333 8.17446V18.813Z" fill="#FF8900"/>
<path d="M6.66633 4.33267H13.3331C13.5172 4.33267 13.6665 4.18345 13.6665 3.99934C13.6665 3.81524 13.5172 3.66602 13.3331 3.66602H6.66633C6.48223 3.66602 6.33301 3.81524 6.33301 3.99934C6.33301 4.18345 6.48223 4.33267 6.66633 4.33267Z" fill="#FF8900"/>
<path d="M13.6665 5.99934C13.6665 5.81524 13.5172 5.66602 13.3331 5.66602H6.66633C6.48223 5.66602 6.33301 5.81528 6.33301 5.99934C6.33301 6.18345 6.48223 6.33267 6.66633 6.33267H13.3331C13.5172 6.33267 13.6665 6.18341 13.6665 5.99934Z" fill="#FF8900"/>
<path d="M13.6667 7.99934C13.6667 7.81524 13.5175 7.66602 13.3334 7.66602H10.3333C10.1492 7.66602 10 7.81524 10 7.99934C10 8.18345 10.1492 8.33267 10.3333 8.33267H13.3334C13.5175 8.33267 13.6667 8.18341 13.6667 7.99934Z" fill="#FF8900"/>
</svg>
