<svg width="181" height="70" viewBox="0 0 181 70" fill="none" xmlns="http://www.w3.org/2000/svg">
<g clip-path="url(#clip0_8670_36044)">
<path fill-rule="evenodd" clip-rule="evenodd" d="M123.347 40.3163L125.131 40.8556C125.011 41.3553 124.823 41.7731 124.567 42.1088C124.311 42.446 123.991 42.7004 123.606 42.872C123.225 43.0406 122.74 43.1249 122.151 43.1249C121.434 43.1249 120.848 43.0225 120.393 42.8178C119.942 42.6071 119.551 42.2397 119.22 41.7159C118.891 41.192 118.727 40.5206 118.727 39.7017C118.727 38.6118 119.016 37.7748 119.594 37.1907C120.176 36.6036 120.996 36.3101 122.055 36.3101C122.884 36.3101 123.536 36.4787 124.01 36.8159C124.487 37.1531 124.841 37.6679 125.072 38.3604L123.274 38.7578C123.213 38.5561 123.148 38.4101 123.077 38.3197C122.964 38.1632 122.826 38.0443 122.662 37.963C122.497 37.8787 122.313 37.8365 122.109 37.8365C121.648 37.8365 121.295 38.0217 121.048 38.392C120.863 38.669 120.77 39.1025 120.77 39.6926C120.77 40.4243 120.881 40.9255 121.104 41.1965C121.327 41.4675 121.64 41.603 122.041 41.603C122.431 41.603 122.725 41.4946 122.922 41.2778C123.124 41.061 123.269 40.7449 123.359 40.3294L123.347 40.3163ZM125.859 39.7184C125.859 38.6436 126.159 37.8066 126.758 37.2074C127.357 36.6083 128.191 36.3087 129.26 36.3087C130.356 36.3087 131.202 36.6038 131.796 37.1939C132.39 37.781 132.687 38.6053 132.687 39.6669C132.687 40.4371 132.557 41.0687 132.296 41.5619C132.04 42.0526 131.667 42.4365 131.176 42.7135C130.688 42.9863 130.08 43.1226 129.352 43.1226C128.611 43.1226 127.997 43.0052 127.509 42.7704C127.027 42.5355 126.634 42.161 126.33 41.6468C126.029 41.1349 125.879 40.4937 125.879 39.7229L125.859 39.7184ZM127.894 39.7274C127.894 40.3922 128.017 40.87 128.262 41.1608C128.509 41.4514 128.845 41.5966 129.269 41.5966C129.706 41.5966 130.045 41.4533 130.286 41.1667C130.523 40.8801 130.642 40.3693 130.642 39.6344C130.642 39.0142 130.516 38.5621 130.263 38.2782C130.013 37.9892 129.674 37.8447 129.247 37.8447C128.834 37.8447 128.505 37.9892 128.258 38.2782C128.008 38.5642 127.883 39.0444 127.883 39.7188L127.894 39.7274ZM133.766 36.4207H136.443L137.478 40.4283L138.506 36.4207H141.175V43.007H139.513V37.9851L138.226 43.007H136.722L135.439 37.9851V43.007H133.768V36.4212L133.766 36.4207ZM142.459 36.4207H145.843C146.579 36.4207 147.13 36.5959 147.496 36.9464C147.864 37.2965 148.049 37.7945 148.049 38.4403C148.049 39.1048 147.848 39.6237 147.446 39.997C147.048 40.3704 146.438 40.557 145.618 40.557H144.504V43.0021H142.459V36.4135L142.459 36.4207ZM144.504 39.2284H145.002C145.395 39.2284 145.67 39.1611 145.829 39.0265C145.988 38.8889 146.067 38.7139 146.067 38.5013C146.067 38.2945 145.998 38.1192 145.86 37.9756C145.723 37.8311 145.464 37.7588 145.084 37.7588H144.502V39.2266L144.504 39.2284ZM149.118 36.4207H151.15V41.3857H154.325V43.007H149.113V36.4212L149.118 36.4207ZM155.341 36.4207H157.378V43.007H155.337V36.4212L155.341 36.4207ZM162.888 41.92H160.566L160.246 43.0075H158.164L160.638 36.423H162.856L165.331 43.012H163.204L162.878 41.9281L162.888 41.92ZM162.458 40.4961L161.727 38.1287L161 40.4961H162.449H162.458ZM165.999 36.4207H167.9L170.38 40.0643V36.4207H172.299V43.007H170.38L167.914 39.3905V43.0079H165.999V36.4203V36.4207ZM173.193 36.4207H179.38V38.0474H177.303V43.007H175.271V38.0483H173.193V36.4216V36.4207Z" fill="#225E63"/>
<path fill-rule="evenodd" clip-rule="evenodd" d="M98.8418 46.4746L104.737 44.6166L102.828 40.3647C101.408 42.1124 100.01 44.3795 98.8405 46.4705L98.8418 46.4746ZM96.8335 27.01L85.274 1.25726L0.649414 6.06242L24.0935 70.0334L69.2232 55.8085C66.36 51.6826 65.3032 46.7776 68.6181 44.3804C72.3348 41.6978 77.9213 44.8004 81.5116 49.2127C84.9574 43.423 94.6219 30.0598 96.8348 27.0114L96.8335 27.01Z" fill="#225E63"/>
<path fill-rule="evenodd" clip-rule="evenodd" d="M82.6468 19.8645C86.1888 19.8645 89.0606 17.1562 89.0606 13.8152C89.0606 10.4742 86.1856 7.76764 82.645 7.76764C79.1016 7.76764 76.2307 10.476 76.2307 13.8174C76.2307 17.1594 79.1016 19.8673 82.6454 19.8673L82.6468 19.8645ZM77.399 22.4884H87.8945V49.8932H77.399V22.4893V22.4884ZM72.2168 30.4865C72.289 30.5303 72.3523 30.4942 72.3523 30.4079V23.4657C72.3523 23.3772 72.289 23.2715 72.2123 23.23C72.2123 23.23 70.8348 22.3326 66.6348 22.0829C66.409 21.9587 62.751 21.9402 61.7393 22.0829C46.4748 23.3067 45.9103 34.3496 45.9103 34.8545V37.5348C45.9103 37.8622 45.9103 49.153 61.7393 50.1529C63.2839 50.2694 66.3142 50.1529 66.6348 50.1529C70.2793 50.1529 72.8039 49.0541 72.8039 49.0541C72.8806 49.0189 72.9484 48.9231 72.9484 48.8355V42.3368C72.9484 42.2483 72.8897 42.2167 72.8129 42.2623C72.8129 42.2623 71.6793 43.1745 66.6981 43.6578C65.2845 43.8158 64.6161 43.7436 64.1058 43.6578C57.0426 42.47 56.7039 37.2945 56.7039 37.2945C56.6948 37.2087 56.6858 37.0687 56.6858 36.9829V35.0094C56.6858 34.9236 56.6948 34.7836 56.7039 34.6978C56.7039 34.6978 57.1781 29.152 64.1013 28.5649H66.689C69.7464 28.9758 72.1987 30.4887 72.1987 30.4887L72.2168 30.4865ZM16.7998 49.7839C16.7998 49.8715 16.8689 49.942 16.9565 49.942H27.1801C27.2668 49.942 27.3373 49.8715 27.3373 49.7871V41.8328C27.3373 41.7488 27.4073 41.682 27.4954 41.6851C27.4954 41.6851 43.8153 42.8652 43.8153 31.9095C43.8153 23.2647 33.5759 22.3173 30.205 22.4753C30.1373 22.4798 16.9583 22.4753 16.9583 22.4753C16.8725 22.4753 16.8003 22.5498 16.8003 22.6343V49.7853L16.7998 49.7839ZM27.1566 35.6078V28.4425H29.6577C29.6577 28.4425 33.2977 28.6069 33.5822 31.0822C33.6499 31.2764 33.6319 32.4867 33.5822 32.5544C33.117 35.4664 29.9557 35.6091 29.9557 35.6091L27.1648 35.6046L27.1566 35.6078Z" fill="#FEFEFE"/>
<path fill-rule="evenodd" clip-rule="evenodd" d="M82.9351 63.1246C83.7887 63.1246 84.4413 63.1246 85.5197 62.6459C89.2469 60.6868 101.79 30.0539 115.02 20.6314C115.097 20.5709 115.207 20.4833 115.27 20.3934C115.355 20.2692 115.358 20.1423 115.358 20.1423C115.358 20.1423 115.358 19.5146 113.396 19.5146C101.618 19.1939 89.3702 43.8836 82.9347 53.652C82.8534 53.7604 82.4108 53.652 82.4108 53.652C82.4108 53.652 78.0979 48.5623 74.3495 46.6113C74.2728 46.5707 73.8437 46.4397 73.4011 46.4713C73.1076 46.4713 71.3644 46.8191 70.5515 47.6817C69.594 48.6933 69.6121 49.2623 69.6211 50.4952C69.6257 50.5946 69.6889 51.0055 69.8063 51.2133C70.7231 52.8165 74.9095 58.5701 78.3373 61.7449C78.8702 62.1242 79.6786 63.1313 82.9392 63.1313L82.9351 63.1246Z" fill="#2BBC5D"/>
<path fill-rule="evenodd" clip-rule="evenodd" d="M118.498 11.3471H128.298C130.231 11.3471 131.789 11.6091 132.973 12.1329C134.168 12.6574 135.153 13.4101 135.929 14.391C136.706 15.3695 137.269 16.5095 137.618 17.8111C137.968 19.1117 138.142 20.4891 138.142 21.9433C138.142 24.2225 137.88 25.9943 137.356 27.2588C136.842 28.5113 136.124 29.5651 135.201 30.4201C134.279 31.2631 133.289 31.8246 132.231 32.1046C130.784 32.49 129.473 32.6827 128.298 32.6827H118.499V11.3399L118.498 11.3471ZM125.095 16.1817V27.8468H126.708C128.087 27.8468 129.068 27.6963 129.65 27.3952C130.232 27.0851 130.688 26.5522 131.017 25.7965C131.346 25.0287 131.51 23.7913 131.51 22.0842C131.51 19.8232 131.14 18.2756 130.4 17.4416C129.663 16.6077 128.439 16.1907 126.73 16.1907H125.084L125.095 16.1817ZM139.937 25.6339L146.209 25.241C146.345 26.2617 146.62 27.0384 147.036 27.5713C147.713 28.4354 148.684 28.8675 149.949 28.8675C150.891 28.8675 151.614 28.6492 152.117 28.2126C152.628 27.767 152.884 27.2522 152.884 26.6681C152.884 26.1171 152.64 25.6234 152.153 25.1868C151.665 24.7503 150.539 24.3393 148.775 23.9539C145.881 23.3036 143.817 22.4395 142.583 21.3617C141.34 20.2868 140.718 18.9139 140.718 17.2429C140.718 16.147 141.034 15.1143 141.666 14.1449C142.305 13.1664 143.26 12.4001 144.534 11.8462C145.817 11.2832 147.569 11.0016 149.791 11.0016C152.515 11.0016 154.591 11.512 156.018 12.5326C157.452 13.5442 158.305 15.1565 158.579 17.3694L152.36 17.7352C152.195 16.7748 151.844 16.0763 151.308 15.6397C150.781 15.2032 150.053 14.9849 149.122 14.9849C148.355 14.9849 147.777 15.1505 147.388 15.4816C146.997 15.8038 146.801 16.1967 146.801 16.6604C146.801 17.0006 146.961 17.3062 147.28 17.5771C147.59 17.8601 148.328 18.1236 149.493 18.3675C152.377 18.9907 154.44 19.6229 155.682 20.2642C156.934 20.8965 157.842 21.6838 158.405 22.6262C158.98 23.5685 159.267 24.6223 159.267 25.7875C159.267 27.1574 158.888 28.4204 158.129 29.5765C157.371 30.7326 156.312 31.6113 154.955 32.2126C153.6 32.7997 151.889 33.0932 149.822 33.0932C146.191 33.0932 143.676 32.3947 142.277 30.9977C140.877 29.6007 140.085 27.8244 139.901 25.6687L139.937 25.6339ZM160.977 25.6339L167.25 25.241C167.386 26.2617 167.661 27.0384 168.077 27.5713C168.754 28.4354 169.725 28.8675 170.989 28.8675C171.932 28.8675 172.654 28.6492 173.157 28.2126C173.672 27.767 173.929 27.2522 173.929 26.6681C173.929 26.1171 173.686 25.6234 173.198 25.1868C172.71 24.7503 171.584 24.3393 169.82 23.9539C166.926 23.3036 164.863 22.4395 163.628 21.3617C162.385 20.2868 161.763 18.9139 161.763 17.2429C161.763 16.147 162.078 15.1143 162.707 14.1449C163.348 13.1664 164.304 12.4001 165.575 11.8462C166.854 11.2832 168.606 11.0016 170.831 11.0016C173.556 11.0016 175.632 11.512 177.059 12.5326C178.495 13.5442 179.349 15.1565 179.62 17.3694L173.406 17.7307C173.237 16.7703 172.886 16.0718 172.353 15.6352C171.829 15.1986 171.101 14.9804 170.168 14.9804C169.4 14.9804 168.822 15.146 168.433 15.4771C168.042 15.7993 167.846 16.1937 167.846 16.6604C167.846 17.0006 168.006 17.3062 168.325 17.5771C168.635 17.8601 169.373 18.1236 170.538 18.3675C173.422 18.9877 175.486 19.6184 176.729 20.2597C177.979 20.892 178.887 21.6793 179.453 22.6217C180.025 23.564 180.311 24.6178 180.311 25.7829C180.311 27.1528 179.933 28.4158 179.177 29.572C178.418 30.7281 177.359 31.6072 175.998 32.2094C174.643 32.7995 172.933 33.0946 170.868 33.0946C167.237 33.0946 164.721 32.3946 163.321 30.9946C161.924 29.5976 161.132 27.8212 160.946 25.6655L160.977 25.6339Z" fill="#225E63"/>
</g>
<defs>
<clipPath id="clip0_8670_36044">
<rect width="180.645" height="70" fill="white"/>
</clipPath>
</defs>
</svg>
